{"title":"Gotham.S02E01.WEBRip.x264-HERO[rartv]","uid":12427879,"size":283694567,"categoryP":"video","categoryS":"hd___tv_shows","magnet":"?xt=urn:btih:ee9614d26a7f3790069ae29d0edc112635f40605&amp;dn=Gotham.S02E01.WEBRip.x264-HERO%5Brartv%5D&amp;tr=udp%3A%2F%2Ftracker.openbittorrent.com%3A80&amp;tr=udp%3A%2F%2Fopen.demonii.com%3A1337&amp;tr=udp%3A%2F%2Ftracker.coppersurfer.tk%3A6969&amp;tr=udp%3A%2F%2Fexodus.desync.com%3A6969","seeders":320,"leechers":12,"uploader":"vickey1992","files":3,"time":1442413681,"description":"Video\nID                                       : 1\nFormat                                   : AVC\nFormat/Info                              : Advanced Video Codec\nFormat profile                           : Main@L4\nFormat settings, CABAC                   : Yes\nFormat settings, ReFrames                : 4 frames\nCodec ID                                 : avc1\nCodec ID/Info                            : Advanced Video Coding\nDuration                                 : 43mn 58s\nBit rate                                 : 693 Kbps\nWidth                                    : 854 pixels\nHeight                                   : 480 pixels\nDisplay aspect ratio                     : 16:9\nOriginal display aspect ratio            : 16:9\nFrame rate mode                          : Variable\nFrame rate                               : 30.000 fps\nMinimum frame rate                       : 3.750 fps\nMaximum frame rate                       : 30.000 fps\nColor space                              : YUV\nChroma subsampling                       : 4:2:0\nBit depth                                : 8 bits\nScan type                                : Progressive\nBits/(Pixel*Frame)                       : 0.056\nStream size                              : 218 MiB (81%)\nWriting library                          : x264 core 142 r2479 dd79a61\nEncoding settings                        : cabac=1 / ref=1 / deblock=1:0:0 / analyse=0x1:0x111 / me=hex / subme=2 / psy=1 / psy_rd=1.00:0.00 / mixed_ref=0 / me_range=16 / chroma_me=1 / trellis=0 / 8x8dct=0 / cqm=0 / deadzone=21,11 / fast_pskip=1 / chroma_qp_offset=0 / threads=12 / lookahead_threads=3 / sliced_threads=0 / nr=0 / decimate=1 / interlaced=0 / bluray_compat=0 / constrained_intra=0 / bframes=3 / b_pyramid=2 / b_adapt=1 / b_bias=0 / direct=1 / weightb=1 / open_gop=0 / weightp=1 / keyint=300 / keyint_min=30 / scenecut=40 / intra_refresh=0 / rc_lookahead=10 / rc=crf / mbtree=1 / crf=20.0 / qcomp=0.60 / qpmin=0 / qpmax=69 / qpstep=4 / vbv_maxrate=20000 / vbv_bufsize=25000 / crf_max=0.0 / nal_hrd=none / filler=0 / ip_ratio=1.40 / aq=1:1.00\nEncoded date                             : UTC 2036-02-06 06:28:16\nTagged date                              : UTC 2036-02-06 06:28:16\nColor range                              : Limited\nColor primaries                          : BT.709\nTransfer characteristics                 : BT.709\nMatrix coefficients                      : BT.709\n\nAudio\nID                                       : 2\nFormat                                   : AAC\nFormat/Info                              : Advanced Audio Codec\nFormat profile                           : LC\nCodec ID                                 : 40\nDuration                                 : 43mn 57s\nBit rate mode                            : Variable\nBit rate                                 : 159 Kbps\nChannel(s)                               : 2 channels\nChannel positions                        : Front: L R\nSampling rate                            : 44.1 KHz\nCompression mode                         : Lossy\nStream size                              : 50.1 MiB (19%)\nTitle                                    : Stereo / Stereo\nEncoded date                             : UTC 2036-02-06 06:28:16\nTagged date                              : UTC 2036-02-06 06:28:16","torrent":{"xt":"urn:btih:ee9614d26a7f3790069ae29d0edc112635f40605","amp;dn":"Gotham.S02E01.WEBRip.x264-HERO%5Brartv%5D","amp;tr":["udp%3A%2F%2Ftracker.openbittorrent.com%3A80","udp%3A%2F%2Fopen.demonii.com%3A1337","udp%3A%2F%2Ftracker.coppersurfer.tk%3A6969","udp%3A%2F%2Fexodus.desync.com%3A6969"],"infoHash":"ee9614d26a7f3790069ae29d0edc112635f40605","infoHashBuffer":{"type":"Buffer","data":[238,150,20,210,106,127,55,144,6,154,226,157,14,220,17,38,53,244,6,5]},"announce":[],"urlList":[]}}